<svg height="496pt" viewBox="-48 0 496 496" width="496pt" xmlns="http://www.w3.org/2000/svg"><path d="m306.734375 226.535156 47.800781-95.597656c3.34375-6.707031 10.191406-10.9375 17.6875-10.9375 10.921875 0 19.777344 8.855469 19.777344 19.777344v1.246094c0 1.96875-.296875 3.929687-.871094 5.816406l-56.265625 182.863281c-4.550781 14.785156-11.214843 28.832031-19.800781 41.695313l-19.0625 28.601562v88h-176v-88l-108.566406-186.121094c-2.25-3.847656-3.433594-8.230468-3.433594-12.6875 0-13.910156 11.28125-25.191406 25.191406-25.191406h1.328125c8.425781 0 16.289063 4.207031 20.960938 11.214844l37.421875 56.144531c1.9375 2.898437 5.1875 4.640625 8.671875 4.640625 5.761719 0 10.425781-4.664062 10.425781-10.425781v-4.871094c0-.472656-.03125-.941406-.097656-1.40625l-23.703125-173.839844c-.136719-.96875-.199219-1.945312-.199219-2.929687v-1.457032c-.007812-11.636718 9.425781-21.070312 21.054688-21.070312h.496093c10.695313 0 19.722657 7.601562 21.457031 18.046875 6.816407 40.929687 23.214844 139.351563 27.785157 166.761719.703125 4.175781 4.3125 7.191406 8.542969 7.191406 4.785156 0 8.664062-3.878906 8.664062-8.664062v-183.335938c0-13.257812 10.742188-24 24-24s24 10.742188 24 24v183.335938c0 4.785156 3.878906 8.664062 8.664062 8.664062 4.230469 0 7.847657-3.0625 8.542969-7.238281l27.871094-167.257813c1.683594-10.097656 10.425781-17.503906 20.664063-17.503906h.503906c12.058594 0 21.753906 9.742188 21.753906 21.703125v.679687c0 1.074219-.078125 2.152344-.238281 3.21875l-23.648438 157.671876c-.074219.488281-.113281.972656-.113281 1.460937v5.378906c0 5.460938 4.425781 9.886719 9.886719 9.886719 3.746093 0 7.167969-2.121094 8.847656-5.464844zm0 0" fill="#f0d0b4"/><path d="m372.222656 112c-10.582031 0-20.109375 5.878906-24.847656 15.351562l-47.789062 95.59375c-.800782 1.582032-3.585938.917969-3.585938-.832031l.023438-5.648437 23.640624-157.648438c.222657-1.464844.335938-2.953125.335938-5.113281 0-16.375-13.34375-29.703125-30.257812-29.703125-14.199219 0-26.207032 10.167969-28.550782 24.191406l-27.871094 167.257813c-.128906.6875-1.320312.582031-1.320312-.113281v-183.335938c0-17.648438-14.351562-32-32-32s-32 14.351562-32 32v183.335938c0 .710937-1.199219.800781-1.304688.167968l-27.792968-166.769531c-2.390625-14.335937-14.734375-24.734375-29.839844-24.734375-7.765625 0-15.070312 3.023438-20.550781 8.511719-5.496094 5.496093-8.511719 12.800781-8.503907 20.550781v1.464844c0 1.335937.089844 2.679687.265626 4l23.726562 174.183594v4.863281c0 2.152343-3.230469 3.144531-4.441406 1.347656l-37.429688-56.144531c-6.167968-9.257813-16.488281-14.777344-27.617187-14.777344h-1.328125c-18.296875 0-33.183594 14.886719-33.183594 33.183594 0 5.863281 1.558594 11.648437 4.511719 16.726562l107.488281 184.257813v93.832031h192v-93.574219l17.71875-26.578125c9.015625-13.519531 16.007812-28.253906 20.792969-43.785156l56.265625-182.863281c.808594-2.664063 1.222656-5.40625 1.222656-8.175781v-1.246094c0-15.3125-12.464844-27.777344-27.777344-27.777344zm0 16c6.496094 0 11.777344 5.28125 11.777344 11.777344v1.246094c0 1.167968-.175781 2.34375-.519531 3.472656l-4.023438 13.070312-24.417969-9.765625 6.648438-13.289062c2.007812-4.015625 6.046875-6.511719 10.535156-6.511719zm-99.964844-48.878906 14.566407 9.710937 12.800781-4.273437-3.402344 22.664062-13.320312 4.082032-14.527344-8.90625zm17.988282-39.121094c7.585937 0 13.753906 6.152344 13.753906 14.382812 0 .671876-.046875 1.328126-.160156 2.023438l-1.558594 10.402344-13.105469 4.367187-14.039062-9.359375 1.832031-10.984375c1.046875-6.28125 6.421875-10.832031 13.277344-10.832031zm-74.246094 136h-32v-40h32zm0-56h-32v-16h32zm-16-104c8.824219 0 16 7.175781 16 16v56h-32v-56c0-8.824219 7.175781-16 16-16zm-97 90.761719 19.167969 6.390625 9.648437-9.65625 3.625 21.742187-9.601562 9.59375-19.910156-6.632812zm-7-53.699219c0-3.488281 1.351562-6.765625 3.824219-9.230469 2.472656-2.464843 5.742187-3.832031 9.726562-3.832031 6.769531 0 12.472657 4.785156 13.570313 11.359375l5.453125 32.746094-10.742188 10.734375-17.246093-5.742188-4.464844-32.730468c-.082032-.605469-.121094-1.214844-.121094-1.839844zm-80 148.121094c0-9.472656 7.710938-17.183594 17.183594-17.183594h1.328125c5.761719 0 11.113281 2.855469 14.304687 7.65625l21.566406 32.34375-10.664062 16h-23.789062l-17.585938-30.144531c-1.527344-2.632813-2.34375-5.632813-2.34375-8.671875zm76.457031 135.726562-7.890625-13.519531 10.089844 2.53125zm-24.449219-41.917968-6.65625-11.40625 8.945313 2.238281zm59.992188 185.007812v-76.6875l8-8v36.6875h16v-52.6875l16-16v36.6875h16v-52.6875l16-16v44.6875h16v-44.6875l16 16v52.6875h16v-36.6875l16 16v52.6875h16v-36.6875l8 8v76.6875zm60.6875-160-2.289062 2.289062c-1.519532-3.183593-2.398438-6.65625-2.398438-10.289062 0-13.230469 10.769531-24 24-24s24 10.769531 24 24c0 3.632812-.878906 7.105469-2.398438 10.289062l-2.289062-2.289062c-10.3125-10.3125-28.3125-10.3125-38.625 0zm58.71875-13.832031.1875.183593 2.308594-2.3125c9.105468.105469 18.050781 2.914063 25.5625 7.960938-7.65625 5.152344-16.800782 8-26.089844 8h-2.183594c.527344-2.609375.808594-5.28125.808594-8 0-2-.304688-3.910156-.59375-5.832031zm-4.148438-18.167969h-3.257812v.246094c-2.335938-3.140625-5.105469-5.910156-8.246094-8.246094h.246094v-3.265625c6.632812-6.46875 14.824219-10.773437 23.742188-12.476563-1.703126 8.925782-6.007813 17.117188-12.484376 23.742188zm-29.425781-15.40625c-1.921875-.289062-3.832031-.59375-5.832031-.59375s-3.910156.304688-5.832031.59375l.183593-.1875-2.3125-2.308594c.105469-9.105468 2.914063-18.050781 7.960938-25.5625 5.046875 7.511719 7.855469 16.449219 7.960938 25.554688l-2.3125 2.308594zm-29.585937 7.40625c-3.140625 2.335938-5.910156 5.105469-8.246094 8.246094v-.246094h-3.265625c-6.46875-6.632812-10.773437-14.824219-12.476563-23.742188 8.917969 1.703126 17.117188 6.007813 23.742188 12.484376v3.257812zm-18.148438 24.039062 2.308594 2.3125.1875-.183593c-.289062 1.921875-.59375 3.832031-.59375 5.832031 0 2.71875.28125 5.390625.808594 8h-2.183594c-9.289062 0-18.433594-2.847656-26.089844-8 7.511719-5.046875 16.457032-7.855469 25.5625-7.960938zm128.664063 83.402344-51.449219-51.441406h6.0625c16.488281 0 32.625-6.6875 44.28125-18.34375l5.65625-5.65625-5.65625-5.65625c-8.519531-8.519531-19.457031-14.351562-31.152344-16.886719 6.527344-10.050781 10.0625-21.761719 10.0625-34.023437v-8h-8c-12.261718 0-23.972656 3.535156-34.023437 10.0625-2.535157-11.695313-8.367188-22.625-16.886719-31.152344l-5.65625-5.65625-5.65625 5.65625c-8.519531 8.519531-14.351562 19.449219-16.886719 31.152344-10.050781-6.527344-21.761719-10.0625-34.023437-10.0625h-8v8c0 12.261718 3.535156 23.972656 10.0625 34.023437-11.695313 2.535157-22.625 8.367188-31.152344 16.886719l-5.65625 5.65625 5.65625 5.65625c11.65625 11.65625 27.800781 18.34375 44.28125 18.34375h6.0625l-51.007812 51.007812-17.070313-29.265624 8.734375-43.652344-31.648438-7.90625 8.007813-32-39.613281-9.894532-4.832032-8.289062h23.023438l11.71875-17.585938 6.246094 9.371094c3.425781 5.144532 9.152344 8.214844 15.328125 8.214844 10.160156 0 18.425781-8.265625 18.425781-18.425781v-4.863281c0-.832032-.054688-1.648438-.167969-2.496094l-11.503906-84.34375 21.832031 7.28125 8.503906-8.511719 12.246094 73.480469c1.335938 8.046875 8.25 13.878906 16.425782 13.878906 9.183593 0 16.664062-7.480469 16.664062-16.664062v-23.335938h32v23.335938c0 9.183593 7.480469 16.664062 16.664062 16.664062 8.175782 0 15.089844-5.847656 16.433594-13.921875l16.4375-98.664063 15.152344 9.289063 12.914062-3.949219-13.402343 89.375c-.128907.863282-.199219 1.734375-.199219 2.605469v5.378906c0 9.863281 8.023438 17.886719 17.886719 17.886719 6.816406 0 12.9375-3.792969 15.992187-9.878906l33.976563-67.953125 26.871093 10.753906-21.375 69.460937-36.09375 18.050782 16 32-32 16 18.78125 37.558594c-3.335937 7.273437-7.183593 14.296874-11.640624 20.984374zm27.972656-71.867187 9.578125-4.78125-4.558594 14.816406zm16-48 8.121094-4.054688-3.863281 12.570313zm0 0"/><path d="m200 392h16v16h-16zm0 0"/><path d="m168 416h16v16h-16zm0 0"/><path d="m136 448h16v16h-16zm0 0"/><path d="m232 416h16v16h-16zm0 0"/><path d="m264 448h16v16h-16zm0 0"/><path d="m192 144h16v16h-16zm0 0"/><path d="m344 184h16v16h-16zm0 0"/></svg>