<svg height="496pt" viewBox="-48 0 496 496" width="496pt" xmlns="http://www.w3.org/2000/svg"><g fill="#f0bc5e"><path d="m144 128-16 16-29.335938-9.777344-5.328124-39.109375 26.664062 8.886719 16-16zm0 0"/><path d="m259.601562 106.398438 22.199219 13.601562 22.199219-6.800781 5.601562-40.398438-21.601562 7.199219-21.601562-14.398438zm0 0"/><path d="m293.65625 306.34375c-8.519531-8.519531-19.457031-14.351562-31.152344-16.886719 6.527344-10.050781 10.0625-21.761719 10.0625-34.023437v-8h-8c-12.261718 0-23.972656 3.535156-34.023437 10.0625-2.535157-11.695313-8.367188-22.625-16.886719-31.152344l-5.65625-5.65625-5.65625 5.65625c-8.519531 8.519531-14.351562 19.449219-16.886719 31.152344-10.050781-6.527344-21.761719-10.0625-34.023437-10.0625h-8v8c0 12.261718 3.535156 23.972656 10.0625 34.023437-11.695313 2.535157-22.625 8.367188-31.152344 16.886719l-5.65625 5.65625 5.65625 5.65625c11.746094 11.742188 27.671875 18.34375 44.28125 18.34375h17.375l10.121094-10.121094c7.664062-7.664062 20.09375-7.664062 27.765625 0l10.113281 10.121094h17.375c16.609375 0 32.535156-6.601562 44.28125-18.34375l5.65625-5.65625zm0 0"/></g><path d="m372.222656 112c-10.582031 0-20.109375 5.878906-24.847656 15.351562l-47.789062 95.59375c-.800782 1.582032-3.585938.917969-3.585938-.832031l.023438-5.648437 23.640624-157.648438c.222657-1.464844.335938-2.953125.335938-5.113281 0-16.375-13.34375-29.703125-30.257812-29.703125-14.199219 0-26.207032 10.167969-28.550782 24.191406l-27.871094 167.257813c-.128906.6875-1.320312.582031-1.320312-.113281v-183.335938c0-17.648438-14.351562-32-32-32s-32 14.351562-32 32v183.335938c0 .710937-1.199219.800781-1.304688.167968l-27.792968-166.769531c-2.390625-14.335937-14.734375-24.734375-29.839844-24.734375-7.765625 0-15.070312 3.023438-20.550781 8.511719-5.496094 5.496093-8.511719 12.800781-8.503907 20.550781v1.464844c0 1.335937.089844 2.679687.265626 4l23.726562 174.183594v4.863281c0 2.152343-3.230469 3.144531-4.441406 1.347656l-37.429688-56.144531c-6.167968-9.257813-16.488281-14.777344-27.617187-14.777344h-1.328125c-18.296875 0-33.183594 14.886719-33.183594 33.183594 0 5.863281 1.558594 11.648437 4.511719 16.726562l107.488281 184.257813v93.832031h192v-93.574219l17.71875-26.578125c9.015625-13.519531 16.007812-28.253906 20.792969-43.785156l56.265625-182.863281c.808594-2.664063 1.222656-5.40625 1.222656-8.175781v-1.246094c0-15.3125-12.464844-27.777344-27.777344-27.777344zm0 16c6.496094 0 11.777344 5.28125 11.777344 11.777344v1.246094c0 1.167968-.175781 2.34375-.519531 3.472656l-4.023438 13.070312-24.417969-9.765625 6.648438-13.289062c2.007812-4.015625 6.046875-6.511719 10.535156-6.511719zm-156.222656 48h-32v-40h32zm0-56h-32v-16h32zm-16-104c8.824219 0 16 7.175781 16 16v56h-32v-56c0-8.824219 7.175781-16 16-16zm-184 185.183594c0-9.472656 7.710938-17.183594 17.183594-17.183594h1.328125c5.761719 0 11.113281 2.855469 14.304687 7.65625l21.566406 32.34375-10.664062 16h-23.789062l-17.585938-30.144531c-1.527344-2.632813-2.34375-5.632813-2.34375-8.671875zm76.457031 135.726562-7.890625-13.519531 10.089844 2.53125zm-24.449219-41.917968-6.65625-11.40625 8.945313 2.238281zm59.992188 185.007812v-76.6875l8-8v36.6875h16v-52.6875l16-16v36.6875h16v-52.6875l16-16v44.6875h16v-44.6875l16 16v52.6875h16v-36.6875l16 16v52.6875h16v-36.6875l8 8v76.6875zm56-168c0-13.230469 10.769531-24 24-24s24 10.769531 24 24c0 3.632812-.878906 7.105469-2.398438 10.289062l-2.289062-2.289062c-10.3125-10.3125-28.3125-10.3125-38.625 0l-2.289062 2.289062c-1.519532-3.183593-2.398438-6.65625-2.398438-10.289062zm110.761719 75.441406-53.386719-53.386718c4.296875-6.488282 6.625-14.085938 6.625-22.054688 0-22.054688-17.945312-40-40-40s-40 17.945312-40 40c0 7.96875 2.328125 15.566406 6.632812 22.054688l-52.953124 52.953124-17.070313-29.265624 8.734375-43.652344-31.648438-7.90625 8.007813-32-39.613281-9.894532-4.832032-8.289062h23.023438l11.71875-17.585938 6.246094 9.371094c3.425781 5.144532 9.152344 8.214844 15.328125 8.214844 10.160156 0 18.425781-8.265625 18.425781-18.425781v-4.863281c0-.832032-.054688-1.648438-.167969-2.496094l-23.703125-173.847656c-.089844-.605469-.128906-1.214844-.128906-1.839844v-1.464844c0-3.488281 1.351562-6.765625 3.824219-9.230469 2.472656-2.464843 5.742187-3.832031 9.726562-3.832031 6.769531 0 12.472657 4.785156 13.570313 11.359375l27.789062 166.769531c1.335938 8.039063 8.25 13.871094 16.425782 13.871094 9.183593 0 16.664062-7.480469 16.664062-16.664062v-23.335938h32v23.335938c0 9.183593 7.480469 16.664062 16.664062 16.664062 8.175782 0 15.089844-5.847656 16.433594-13.921875l27.871094-167.246094c1.046875-6.28125 6.421875-10.832031 13.277344-10.832031 7.585937 0 13.753906 6.152344 13.753906 14.382812 0 .671876-.046875 1.328126-.160156 2.023438l-23.648438 157.722656c-.121094.863282-.191406 1.734375-.191406 2.605469v5.378906c0 9.863281 8.023438 17.886719 17.886719 17.886719 6.816406 0 12.9375-3.792969 15.992187-9.878906l33.976563-67.953125 26.871093 10.753906-21.375 69.460937-36.09375 18.050782 16 32-32 16 18.78125 37.558594c-3.335937 7.273437-7.183593 14.296874-11.640624 20.984374zm27.972656-71.867187 9.578125-4.78125-4.558594 14.816406zm16-48 8.121094-4.054688-3.863281 12.570313zm0 0"/><path d="m200 392h16v16h-16zm0 0"/><path d="m168 416h16v16h-16zm0 0"/><path d="m136 448h16v16h-16zm0 0"/><path d="m232 416h16v16h-16zm0 0"/><path d="m264 448h16v16h-16zm0 0"/><path d="m192 144h16v16h-16zm0 0"/><path d="m344 184h16v16h-16zm0 0"/></svg>